<svg version="1.1" viewBox="0.0 0.0 256.0 256.0" fill="none" stroke="none" stroke-linecap="square" stroke-miterlimit="10" xmlns:xlink="http://www.w3.org/1999/xlink" xmlns="http://www.w3.org/2000/svg"><clipPath id="p.0"><path d="m0 0l256.0 0l0 256.0l-256.0 0l0 -256.0z" clip-rule="nonzero"/></clipPath><g clip-path="url(#p.0)"><path fill="#000000" fill-opacity="0.0" d="m0 0l256.0 0l0 256.0l-256.0 0z" fill-rule="evenodd"/><path fill="#000000" d="m0 42.66752l0 0c0 -23.56462 19.1029 -42.66752 42.66752 -42.66752l170.66495 0l0 0c11.316132 0 22.168793 4.495315 30.170502 12.497027c8.001709 8.001712 12.497025 18.854362 12.497025 30.17049l0 170.66495c0 23.564621 -19.102905 42.667526 -42.667526 42.667526l-170.66495 0c-23.56462 0 -42.66752 -19.102905 -42.66752 -42.667526z" fill-rule="evenodd"/><path fill="#000000" fill-opacity="0.0" d="m56.009613 79.98545l0 0c0.00289917 -13.254837 10.750412 -23.997654 24.005249 -23.994755l96.0 0.020996094l0 0c6.3651886 0.0013923645 12.469131 2.531292 16.969025 7.0331497c4.499893 4.5018578 7.027115 10.606907 7.0257263 16.972103l-0.020996094 95.99999c-0.00289917 13.254837 -10.750412 23.99765 -24.005249 23.994751l-96.0 -0.020996094c-13.254837 -0.00289917 -23.997654 -10.750412 -23.994755 -24.005249z" fill-rule="evenodd"/><path stroke="#ffffff" stroke-width="24.0" stroke-linejoin="round" stroke-linecap="butt" d="m56.009613 79.98545l0 0c0.00289917 -13.254837 10.750412 -23.997654 24.005249 -23.994755l96.0 0.020996094l0 0c6.3651886 0.0013923645 12.469131 2.531292 16.969025 7.0331497c4.499893 4.5018578 7.027115 10.606907 7.0257263 16.972103l-0.020996094 95.99999c-0.00289917 13.254837 -10.750412 23.99765 -24.005249 23.994751l-96.0 -0.020996094c-13.254837 -0.00289917 -23.997654 -10.750412 -23.994755 -24.005249z" fill-rule="evenodd"/></g></svg>